<svg width="12" height="16" viewBox="0 0 12 16" fill="none" xmlns="http://www.w3.org/2000/svg">
    <path d="M5.98901 0C2.70854 0 0.0395508 2.39259 0.0395508 5.33334C0.0395508 6.21616 0.285767 7.09147 0.753833 7.86784L5.66366 15.8281C5.72902 15.9342 5.85357 16 5.98901 16C6.12444 16 6.24899 15.9342 6.31435 15.8281L11.226 7.86522C11.6922 7.09147 11.9385 6.21613 11.9385 5.33331C11.9385 2.39259 9.26947 0 5.98901 0ZM5.98901 8C4.34877 8 3.0143 6.80372 3.0143 5.33334C3.0143 3.86297 4.34877 2.66669 5.98901 2.66669C7.62924 2.66669 8.96372 3.86297 8.96372 5.33334C8.96372 6.80372 7.62924 8 5.98901 8Z" fill="#007AFF"/>
</svg>
