<svg width="61" height="60" viewBox="0 0 61 60" fill="none" xmlns="http://www.w3.org/2000/svg">
    <path d="M11.1838 35C10.6223 35 10.1671 34.5522 10.1671 34V29.8284C10.1671 28.2715 9.55075 26.8079 8.43166 25.7071C8.03452 25.3166 8.03452 24.6835 8.43153 24.2929C8.82866 23.9024 9.47234 23.9024 9.86922 24.2929C11.3725 25.7714 12.2004 27.7372 12.2004 29.8284V34C12.2004 34.5522 11.7452 35 11.1838 35Z" fill="#FAA037"/>
    <path d="M6.09973 20H4.06641V17C4.06641 16.4477 4.52162 16 5.08307 16C5.64452 16 6.09973 16.4477 6.09973 17V20Z" fill="#FFD241"/>
    <path d="M5.08307 26C4.52162 26 4.06641 25.5522 4.06641 25V22H6.09973V25C6.09973 25.5522 5.64452 26 5.08307 26Z" fill="#FFD241"/>
    <path d="M6.1001 22V20H9.15008C9.71154 20 10.1667 20.4477 10.1667 21C10.1667 21.5522 9.71154 22 9.15008 22H6.1001Z" fill="#FFD241"/>
    <path d="M0 21C0 20.4477 0.45521 20 1.01666 20H4.06665V22H1.01666C0.45521 22 0 21.5522 0 21Z" fill="#FFD241"/>
    <path d="M49.816 34.9999C49.2545 34.9999 48.7993 34.5522 48.7993 33.9999V29.8283C48.7993 27.7372 49.6273 25.7713 51.1305 24.2928C51.5275 23.9023 52.1712 23.9025 52.5682 24.2928C52.9652 24.6833 52.9652 25.3166 52.5681 25.7071C51.449 26.8078 50.8326 28.2714 50.8326 29.8283V33.9999C50.8326 34.5522 50.3774 34.9999 49.816 34.9999Z" fill="#FAA037"/>
    <path d="M35.5832 33H25.4166C24.8551 33 24.3999 32.5522 24.3999 32V30H36.5998V32C36.5998 32.5522 36.1446 33 35.5832 33Z" fill="#555A6E"/>
    <path d="M24.3999 30H36.5998V31H24.3999V30Z" fill="#463C4B"/>
    <path d="M36.6 31H30.5V33H35.5833C36.1448 33 36.6 32.5522 36.6 32V31Z" fill="#463C4B"/>
    <path d="M50.8332 60H10.1667C7.92081 60 6.1001 58.2091 6.1001 56V34H54.8999V56C54.8999 58.2091 53.0792 60 50.8332 60Z" fill="#C8733C"/>
    <path d="M26.4333 60H10.1667C7.92081 60 6.1001 58.2091 6.1001 56V34H30.5V56C30.5 58.2091 28.6793 60 26.4333 60Z" fill="#F0915A"/>
    <path d="M30.5002 34C28.2543 34 26.4336 35.7909 26.4336 38V42C26.4336 42.5522 25.9784 43 25.4169 43H3.05035C2.4889 43 2.03369 42.5522 2.03369 42V38C2.03369 35.7909 3.85441 34 6.10034 34H30.5002Z" fill="#FAB991"/>
    <path d="M30.5 34C32.7459 34 34.5666 35.7909 34.5666 38V42C34.5666 42.5522 35.0219 43 35.5833 43H57.9499C58.5113 43 58.9665 42.5522 58.9665 42V38C58.9665 35.7909 57.1458 34 54.8999 34H30.5Z" fill="#F0915A"/>
    <path d="M36.6 30H30.5V0C31.802 0 33.0506 0.508749 33.9711 1.41425C36.9563 4.3505 38.6333 8.33287 38.6333 12.4852V28C38.6333 29.1046 37.723 30 36.6 30Z" fill="#A5C3DC"/>
    <path d="M24.3995 30H30.4995V0C29.1975 0 27.949 0.508749 27.0284 1.41425C24.0432 4.3505 22.3662 8.33287 22.3662 12.4852V28C22.3662 29.1046 23.2765 30 24.3995 30Z" fill="#D7E6F0"/>
    <path d="M30.4993 18C33.3068 18 35.5826 15.7614 35.5826 13C35.5826 10.2386 33.3068 8 30.4993 8C27.6919 8 25.416 10.2386 25.416 13C25.416 15.7614 27.6919 18 30.4993 18Z" fill="#57FDAD"/>
    <path d="M35.5833 13C35.5833 10.2386 33.3074 8 30.5 8V18C33.3074 18 35.5833 15.7614 35.5833 13Z" fill="#04DA73"/>
    <path d="M30.5002 16C32.1846 16 33.5502 14.6569 33.5502 13C33.5502 11.3431 32.1846 10 30.5002 10C28.8157 10 27.4502 11.3431 27.4502 13C27.4502 14.6569 28.8157 16 30.5002 16Z" fill="#007AFF"/>
    <path d="M30.5001 20C29.9386 20 29.4834 20.4477 29.4834 21V31C29.4834 31.5522 29.9386 32 30.5001 32C31.0615 32 31.5167 31.5522 31.5167 31V21C31.5167 20.4477 31.0615 20 30.5001 20Z" fill="#57FDAD"/>
    <path d="M38.6333 28L42.2788 31.5857C42.5485 31.851 42.9141 32 43.2955 32C44.0895 32 44.7333 31.3669 44.7333 30.5857V27.2426C44.7333 26.447 44.4119 25.6839 43.84 25.1212L38.6333 20V28Z" fill="#06406A"/>
    <path d="M22.3661 28L18.7206 31.5857C18.4509 31.851 18.0853 32 17.7039 32C16.9099 32 16.2661 31.3669 16.2661 30.5857V27.2426C16.2661 26.447 16.5875 25.6839 17.1594 25.1212L22.3661 20V28Z" fill="#0073C7"/>
    <path d="M30.4997 0V4H24.9067C25.5142 3.0725 26.2233 2.20625 27.029 1.41375C27.4891 0.961249 28.0317 0.607499 28.6214 0.3675C29.211 0.1275 29.849 0 30.4997 0Z" fill="#57FDAD"/>
    <path d="M36.0929 4H30.5V0C31.1507 0 31.7886 0.1275 32.3783 0.3675C32.9679 0.607499 33.5106 0.961249 33.9706 1.41375C34.7763 2.20625 35.4855 3.0725 36.0929 4Z" fill="#04DA73"/>
    <path d="M25.416 33H35.5826V34H25.416V33Z" fill="#00D2D2"/>
    <path d="M54.8999 20H56.9332V17C56.9332 16.4477 56.478 16 55.9166 16C55.3551 16 54.8999 16.4477 54.8999 17V20Z" fill="#FFD241"/>
    <path d="M55.9166 26C56.478 26 56.9332 25.5522 56.9332 25V22H54.8999V25C54.8999 25.5522 55.3551 26 55.9166 26Z" fill="#FFD241"/>
    <path d="M54.9001 22V20H51.8502C51.2887 20 50.8335 20.4477 50.8335 21C50.8335 21.5522 51.2887 22 51.8502 22H54.9001Z" fill="#FFD241"/>
    <path d="M60.9998 21C60.9998 20.4477 60.5445 20 59.9831 20H56.9331V22H59.9831C60.5445 22 60.9998 21.5522 60.9998 21Z" fill="#FFD241"/>
    <path d="M43.7163 4H45.7496V2C45.7496 1.44775 45.2944 1 44.733 1C44.1715 1 43.7163 1.44775 43.7163 2V4Z" fill="#FFD241"/>
    <path d="M44.733 9C45.2944 9 45.7496 8.55225 45.7496 8V6H43.7163V8C43.7163 8.55225 44.1715 9 44.733 9Z" fill="#FFD241"/>
    <path d="M43.716 6V4H41.6827C41.1212 4 40.666 4.44775 40.666 5C40.666 5.55225 41.1212 6 41.6827 6H43.716Z" fill="#FFD241"/>
    <path d="M48.7995 5C48.7995 4.44775 48.3443 4 47.7828 4H45.7495V6H47.7828C48.3443 6 48.7995 5.55225 48.7995 5Z" fill="#FFD241"/>
    <path d="M44.733 19C44.1715 19 43.7163 18.5522 43.7163 18V12C43.7163 11.4477 44.1715 11 44.733 11C45.2944 11 45.7496 11.4477 45.7496 12V18C45.7496 18.5522 45.2944 19 44.733 19Z" fill="#FAA037"/>
    <path d="M44.733 23C44.1715 23 43.7163 22.5522 43.7163 22V21C43.7163 20.4477 44.1715 20 44.733 20C45.2944 20 45.7496 20.4477 45.7496 21V22C45.7496 22.5522 45.2944 23 44.733 23Z" fill="#FAA037"/>
    <path d="M15.25 4H17.2833V2C17.2833 1.44775 16.8281 1 16.2667 1C15.7052 1 15.25 1.44775 15.25 2V4Z" fill="#FFD241"/>
    <path d="M16.2667 9C16.8281 9 17.2833 8.55225 17.2833 8V6H15.25V8C15.25 8.55225 15.7052 9 16.2667 9Z" fill="#FFD241"/>
    <path d="M15.2502 6V4H13.2169C12.6554 4 12.2002 4.44775 12.2002 5C12.2002 5.55225 12.6554 6 13.2169 6H15.2502Z" fill="#FFD241"/>
    <path d="M20.3337 5C20.3337 4.44775 19.8785 4 19.317 4H17.2837V6H19.317C19.8785 6 20.3337 5.55225 20.3337 5Z" fill="#FFD241"/>
    <path d="M16.2667 19C15.7052 19 15.25 18.5522 15.25 18V12C15.25 11.4477 15.7052 11 16.2667 11C16.8281 11 17.2833 11.4477 17.2833 12V18C17.2833 18.5522 16.8281 19 16.2667 19Z" fill="#FAA037"/>
    <path d="M16.2667 23C15.7052 23 15.25 22.5522 15.25 22V21C15.25 20.4477 15.7052 20 16.2667 20C16.8281 20 17.2833 20.4477 17.2833 21V22C17.2833 22.5522 16.8281 23 16.2667 23Z" fill="#FAA037"/>
    <path d="M54.8995 12C56.0225 12 56.9329 11.1046 56.9329 10C56.9329 8.89543 56.0225 8 54.8995 8C53.7766 8 52.8662 8.89543 52.8662 10C52.8662 11.1046 53.7766 12 54.8995 12Z" fill="#FAA037"/>
    <path d="M6.09973 12C7.2227 12 8.13305 11.1046 8.13305 10C8.13305 8.89543 7.2227 8 6.09973 8C4.97676 8 4.06641 8.89543 4.06641 10C4.06641 11.1046 4.97676 12 6.09973 12Z" fill="#FAA037"/>
</svg>
