<svg width="38" height="33" viewBox="0 0 38 33" fill="none" xmlns="http://www.w3.org/2000/svg">
    <path d="M11.3019 32.0327L11.3018 32.0322L9.76024 23.0012C9.76023 23.0011 9.76022 23.0011 9.76021 23.001C9.73678 22.8624 9.77861 22.713 9.89389 22.5924C10.0141 22.4666 10.1998 22.3843 10.4097 22.3843H26.5972C26.8066 22.3843 26.9932 22.4676 27.1117 22.5925C27.2279 22.7149 27.2698 22.8641 27.2466 23.0027C27.2465 23.0028 27.2465 23.0029 27.2465 23.003L25.705 32.0336L25.705 32.0338C25.6657 32.2643 25.421 32.5001 25.0555 32.5001H11.9513C11.5862 32.5001 11.3413 32.2647 11.3019 32.0327Z" fill="url(#paint0_linear)" stroke="#004FAC" stroke-linecap="round" stroke-linejoin="round"/>
    <path d="M24.1702 5.5579C24.1702 8.30367 21.6833 10.6158 18.5036 10.6158C15.3238 10.6158 12.8369 8.30367 12.8369 5.5579C12.8369 2.81212 15.3238 0.5 18.5036 0.5C21.6833 0.5 24.1702 2.81212 24.1702 5.5579Z" fill="url(#paint1_linear)" stroke="#004FAC" stroke-linecap="round" stroke-linejoin="round"/>
    <path d="M35.2964 18.1029C35.3171 18.3628 35.534 18.5632 35.7948 18.5632C36.4081 18.5632 36.5748 19.0181 36.4748 19.284L33.3961 26.9148C33.3957 26.9157 33.3953 26.9166 33.3949 26.9175C33.3101 27.1155 33.0737 27.2895 32.7623 27.2895H30.7043L31.2817 23.9423L31.2822 23.9394C31.4942 22.6657 31.0847 21.3985 30.181 20.443L30.1811 20.443L30.1749 20.4367C29.1896 19.4309 27.8823 18.9527 26.5957 18.9527H10.4082C8.95413 18.9527 7.605 19.5987 6.82098 20.445C5.91856 21.4002 5.50979 22.6666 5.72163 23.9394L5.72162 23.9394L5.72212 23.9423L6.29954 27.2895H4.24151C3.93018 27.2895 3.69382 27.1156 3.60897 26.9176L0.529033 19.2839C0.42386 19.0042 0.638443 18.5632 1.15818 18.5632H6.2611C6.50367 18.5632 6.71125 18.3891 6.75347 18.1503C7.2608 15.2797 10.0476 13.0053 13.4915 13.0053H23.5123C26.9562 13.0053 29.7431 15.2797 30.2504 18.1503C30.2926 18.3891 30.5002 18.5632 30.7428 18.5632H33.4823C33.6236 18.5632 33.7584 18.5034 33.8532 18.3986C33.9479 18.2938 33.994 18.1537 33.9798 18.0131C33.727 15.5036 32.2284 13.2135 29.9396 11.7929C29.7895 11.6997 29.6012 11.6927 29.4446 11.7745C29.1681 11.9188 28.8569 12.0053 28.5228 12.0053C27.4722 12.0053 26.7103 11.2478 26.7103 10.4211C26.7103 9.5944 27.4722 8.83691 28.5228 8.83691C29.5692 8.83691 30.3282 9.5874 30.3337 10.4106C30.3349 10.5851 30.427 10.7464 30.5768 10.8361C33.3289 12.4849 35.0652 15.1976 35.2964 18.1029Z" fill="url(#paint2_linear)" stroke="#004FAC" stroke-linecap="round" stroke-linejoin="round"/>
    <defs>
        <linearGradient id="paint0_linear" x1="18.5033" y1="21.8843" x2="18.5033" y2="33.0001" gradientUnits="userSpaceOnUse">
            <stop stop-color="#5CBBFF"/>
            <stop offset="1" stop-color="#007AFF"/>
        </linearGradient>
        <linearGradient id="paint1_linear" x1="18.5036" y1="0" x2="18.5036" y2="11.1158" gradientUnits="userSpaceOnUse">
            <stop stop-color="#5CBBFF"/>
            <stop offset="1" stop-color="#007AFF"/>
        </linearGradient>
        <linearGradient id="paint2_linear" x1="18.5022" y1="8.33691" x2="18.5022" y2="27.7895" gradientUnits="userSpaceOnUse">
            <stop stop-color="#5CBBFF"/>
            <stop offset="1" stop-color="#007AFF"/>
        </linearGradient>
    </defs>
</svg>
