<svg width="35" height="33" viewBox="0 0 35 33" fill="none" xmlns="http://www.w3.org/2000/svg">
    <path d="M14.5996 17.5322H20.4004V19.5987H14.5996V17.5322Z" fill="#DBDBDB" stroke="#66676B" stroke-linecap="round" stroke-linejoin="round"/>
    <path d="M27.7725 19.6006H22.334V20.6338C22.334 21.2048 21.9014 21.6671 21.3672 21.6671H13.6328C13.0986 21.6671 12.666 21.2048 12.666 20.6338V19.6006H7.22753C5.97749 19.6006 4.87197 18.7489 4.47619 17.4815L1 6.33398V28.9001C1 30.6093 2.30115 31.9999 3.90039 31.9999H31.0996C32.6989 31.9999 34 30.6093 34 28.9001V6.33479L30.5236 17.4815C30.128 18.7489 29.0225 19.6006 27.7725 19.6006Z" fill="url(#paint0_linear)" stroke="#66676B" stroke-linecap="round" stroke-linejoin="round"/>
    <path d="M21.3673 1H13.6329C12.0337 1 10.7325 2.39063 10.7325 4.09985V5.13313H2.66357L6.30996 16.8262C6.44214 17.2489 6.81123 17.5325 7.22766 17.5325H12.6661V16.4992C12.6661 15.9282 13.0987 15.466 13.6329 15.466H21.3673C21.9016 15.466 22.3341 15.9282 22.3341 16.4992V17.5325H27.7726C28.189 17.5325 28.5581 17.2489 28.6903 16.8262L32.3369 5.13313H24.2677V4.09985C24.2677 2.39063 22.9666 1 21.3673 1ZM12.6661 5.13313V4.09985C12.6661 3.52966 13.0994 3.06657 13.6329 3.06657H21.3673C21.9008 3.06657 22.3341 3.52966 22.3341 4.09985V5.13313H12.6661Z" fill="url(#paint1_linear)" stroke="#66676B" stroke-linecap="round" stroke-linejoin="round"/>
    <defs>
        <linearGradient id="paint0_linear" x1="17.5" y1="6.33398" x2="17.5" y2="31.9999" gradientUnits="userSpaceOnUse">
            <stop stop-color="#EBF1F4"/>
            <stop offset="1" stop-color="#DBDBDB"/>
        </linearGradient>
        <linearGradient id="paint1_linear" x1="17.5003" y1="1" x2="17.5003" y2="17.5325" gradientUnits="userSpaceOnUse">
            <stop stop-color="#EBF1F4"/>
            <stop offset="1" stop-color="#DBDBDB"/>
        </linearGradient>
    </defs>
</svg>
