<svg width="24" height="24" viewBox="0 0 24 24" fill="none" xmlns="http://www.w3.org/2000/svg">
    <path d="M12 6C8.94303 6 6.17081 8.10432 4.12519 11.5223C3.95827 11.8023 3.95827 12.1935 4.12519 12.4736C6.17081 15.8957 8.94303 18 12 18C15.057 18 17.8292 15.8957 19.8748 12.4777C20.0417 12.1977 20.0417 11.8065 19.8748 11.5264C17.8292 8.10432 15.057 6 12 6ZM12.5 15.9444C10.4707 16.105 8.51427 14.2814 8.64191 11.7241C8.74665 9.61565 9.82423 8.13178 11.5 8C13.5293 7.8394 15.4857 9.7186 15.3581 12.2759C15.2501 14.3802 14.1725 15.8085 12.5 15.9444ZM12.1178 14.2732C11.0246 14.3596 10.1213 13.2272 10.1933 11.8518C10.249 10.7152 10.9821 9.79684 11.8854 9.72272C12.9786 9.63624 13.882 10.7687 13.81 12.1441C13.751 13.2848 13.0179 14.2032 12.1178 14.2732Z" fill="#007AFF"/>
    <line x1="20" y1="4.41421" x2="4.41421" y2="20" stroke="#007AFF" stroke-width="2" stroke-linecap="round"/>
</svg>
