<svg width="34" height="35" viewBox="0 0 34 35" fill="none" xmlns="http://www.w3.org/2000/svg">
    <path d="M8.56377 33.4337V26.2656H1.54932L8.56377 33.4337Z" fill="url(#paint0_linear)" stroke="#66676B" stroke-linecap="round" stroke-linejoin="bevel"/>
    <path d="M14.853 15.2852L16.179 19.3875L16.8423 20.0714L19.494 17.337L18.8308 16.6533L14.853 15.2852Z" fill="url(#paint1_linear)" stroke="#66676B" stroke-linecap="round" stroke-linejoin="bevel"/>
    <path d="M18.1641 21.439L20.8155 18.7051L29.6842 27.8493L27.0328 30.5832L18.1641 21.439Z" fill="url(#paint2_linear)" stroke="#66676B" stroke-linecap="round" stroke-linejoin="bevel"/>
    <path d="M28.3594 31.9482L31.0108 29.2147L32.9999 31.2653L30.3484 33.9989L28.3594 31.9482Z" fill="url(#paint3_linear)" stroke="#66676B" stroke-linecap="round" stroke-linejoin="bevel"/>
    <path d="M25.4419 20.733V1H1V24.332H10.4392V34H25.4419V31.6701L14.5399 20.4302L11.8879 12.2253L19.844 14.9616L25.4419 20.733ZM8.56387 3.96484H21.6913V5.89844H8.56387V3.96484ZM4.81319 3.96484H6.68853V5.89844H4.81319V3.96484ZM4.81319 9.76562V7.83203H21.6913V9.76562H4.81319Z" fill="url(#paint4_linear)" stroke="#66676B" stroke-linecap="round" stroke-linejoin="bevel"/>
    <defs>
        <linearGradient id="paint0_linear" x1="5.05655" y1="26.2656" x2="5.05655" y2="33.4337" gradientUnits="userSpaceOnUse">
            <stop stop-color="#EBF1F4"/>
            <stop offset="1" stop-color="#DBDBDB"/>
        </linearGradient>
        <linearGradient id="paint1_linear" x1="17.1735" y1="15.2852" x2="17.1735" y2="20.0714" gradientUnits="userSpaceOnUse">
            <stop stop-color="#EBF1F4"/>
            <stop offset="1" stop-color="#DBDBDB"/>
        </linearGradient>
        <linearGradient id="paint2_linear" x1="19.4898" y1="20.0721" x2="28.6297" y2="28.9366" gradientUnits="userSpaceOnUse">
            <stop stop-color="#EBF1F4"/>
            <stop offset="1" stop-color="#DBDBDB"/>
        </linearGradient>
        <linearGradient id="paint3_linear" x1="29.6851" y1="30.5814" x2="31.7348" y2="32.5696" gradientUnits="userSpaceOnUse">
            <stop stop-color="#EBF1F4"/>
            <stop offset="1" stop-color="#DBDBDB"/>
        </linearGradient>
        <linearGradient id="paint4_linear" x1="13.221" y1="1" x2="13.221" y2="34" gradientUnits="userSpaceOnUse">
            <stop stop-color="#EBF1F4"/>
            <stop offset="1" stop-color="#DBDBDB"/>
        </linearGradient>
    </defs>
</svg>
