<svg width="32" height="35" viewBox="0 0 32 35" fill="none" xmlns="http://www.w3.org/2000/svg">
    <path d="M23.4843 18.6602C19.3747 18.6602 16.0312 22.1009 16.0312 26.3301C16.0312 30.5593 19.3747 34 23.4843 34C27.6284 34 30.9999 30.5593 30.9999 26.3301C30.9999 22.1009 27.6284 18.6602 23.4843 18.6602ZM25.7717 25.4021L23.2665 28.4959C23.0869 28.7177 22.8218 28.8437 22.5449 28.8437C22.5089 28.8437 22.4727 28.8416 22.4365 28.8373C22.1216 28.7997 21.8463 28.6011 21.7045 28.3093L20.7024 26.2468C20.4704 25.7693 20.6585 25.1885 21.1225 24.9497C21.5866 24.7108 22.1509 24.9045 22.383 25.3821L22.7427 26.1224L24.3283 24.1643C24.6605 23.7541 25.2529 23.6988 25.6514 24.0404C26.0501 24.3823 26.1039 24.9919 25.7717 25.4021Z" fill="url(#paint0_linear)" stroke="#66676B" stroke-linecap="round" stroke-linejoin="round"/>
    <path d="M23.0795 6.50781L19.2676 2.45112C19.2658 2.44919 19.2639 2.44719 19.2621 2.44526C18.3845 1.52678 17.1632 1 15.9117 1H3.81837C2.26432 1 1 2.30114 1 3.90044V28.9731C1 30.5725 2.26432 31.8736 3.81837 31.8736H15.8679C14.7879 30.3066 14.1524 28.3936 14.1524 26.3305C14.1524 21.035 18.3387 16.7268 23.4844 16.7268C23.8014 16.7268 24.1147 16.7432 24.4238 16.7747V9.8934C24.4238 8.6192 23.9464 7.41707 23.0795 6.50781ZM10.9583 22.5922H5.94781C5.42898 22.5922 5.00835 22.1593 5.00835 21.6254C5.00835 21.0914 5.42898 20.6585 5.94781 20.6585H10.9583C11.4771 20.6585 11.8977 21.0914 11.8977 21.6254C11.8977 22.1593 11.4771 22.5922 10.9583 22.5922ZM10.9583 17.4358H5.94781C5.42898 17.4358 5.00835 17.003 5.00835 16.469C5.00835 15.9351 5.42898 15.5022 5.94781 15.5022H10.9583C11.4771 15.5022 11.8977 15.9351 11.8977 16.469C11.8977 17.003 11.4771 17.4358 10.9583 17.4358ZM10.9583 12.2795H5.94781C5.42898 12.2795 5.00835 11.8466 5.00835 11.3127C5.00835 10.7787 5.42898 10.3459 5.94781 10.3459H10.9583C11.4771 10.3459 11.8977 10.7787 11.8977 11.3127C11.8977 11.8466 11.4771 12.2795 10.9583 12.2795ZM16.9708 17.4358H15.9687C15.4499 17.4358 15.0292 17.003 15.0292 16.469C15.0292 15.9351 15.4499 15.5022 15.9687 15.5022H16.9708C17.4896 15.5022 17.9102 15.9351 17.9102 16.469C17.9102 17.003 17.4896 17.4358 16.9708 17.4358ZM16.9708 12.2795H15.9687C15.4499 12.2795 15.0292 11.8466 15.0292 11.3127C15.0292 10.7787 15.4499 10.3459 15.9687 10.3459H16.9708C17.4896 10.3459 17.9102 10.7787 17.9102 11.3127C17.9102 11.8466 17.4896 12.2795 16.9708 12.2795Z" fill="url(#paint1_linear)" stroke="#66676B" stroke-linecap="round" stroke-linejoin="round"/>
    <defs>
        <linearGradient id="paint0_linear" x1="23.5156" y1="18.6602" x2="23.5156" y2="34" gradientUnits="userSpaceOnUse">
            <stop stop-color="#EBF1F4"/>
            <stop offset="1" stop-color="#DBDBDB"/>
        </linearGradient>
        <linearGradient id="paint1_linear" x1="12.7119" y1="1" x2="12.7119" y2="31.8736" gradientUnits="userSpaceOnUse">
            <stop stop-color="#EBF1F4"/>
            <stop offset="1" stop-color="#DBDBDB"/>
        </linearGradient>
    </defs>
</svg>
