<svg width="41" height="34" viewBox="0 0 41 34" fill="none" xmlns="http://www.w3.org/2000/svg">
    <path d="M39.8482 10.1505C39.8475 9.86008 39.7064 9.51309 39.3792 9.35821L39.3774 9.35738L20.756 0.632308C20.7557 0.632185 20.7554 0.632063 20.7552 0.631941C20.3818 0.455814 19.9658 0.456323 19.5924 0.631649C19.5922 0.631728 19.5921 0.631807 19.5919 0.631886L0.974182 9.35799C0.973655 9.35824 0.973129 9.35848 0.972604 9.35873C0.635771 9.51549 0.502262 9.86882 0.500032 10.1503C0.497808 10.4308 0.622618 10.7803 0.947658 10.9476C0.947929 10.9477 0.9482 10.9479 0.948471 10.948L19.5418 20.5618L19.5443 20.5631C19.946 20.7679 20.4009 20.7679 20.8027 20.5631L20.8053 20.5617L37.3862 11.9836V22.2443C36.8688 22.6994 36.5576 23.4314 36.5576 24.227C36.5576 25.0006 36.8505 25.7427 37.36 26.2071C37.1344 26.918 36.9486 27.8336 36.8139 28.6713C36.6551 29.6594 36.5576 30.6023 36.5576 31.0481C36.5576 31.6854 36.7519 32.2814 37.0893 32.7292C37.4269 33.1771 37.9307 33.5 38.5282 33.5C39.1253 33.5 39.6288 33.1768 39.9661 32.7291C40.3033 32.2814 40.4975 31.6854 40.4975 31.0481C40.4975 30.6022 40.3997 29.6592 40.2408 28.6712C40.1061 27.8341 39.9204 26.9193 39.6954 26.2088C40.2065 25.746 40.5 25.0033 40.5 24.2302C40.5 23.4292 40.188 22.7008 39.6702 22.2459V10.7161C39.7978 10.5437 39.8493 10.3312 39.8482 10.1505ZM39.8482 10.1505C39.8482 10.1512 39.8482 10.1519 39.8482 10.1526H39.3482L39.8482 10.1486C39.8482 10.1492 39.8482 10.1498 39.8482 10.1505Z" fill="url(#paint0_linear)" stroke="#66676B" stroke-linecap="round" stroke-linejoin="round"/>
    <path d="M7.22974 14.9016C7.07471 14.8214 6.88907 14.8279 6.73997 14.9186C6.59088 15.0094 6.49992 15.1714 6.5 15.3459C6.50123 18.1116 6.50245 21.3662 6.50245 21.883C6.50245 24.6612 8.07731 27.1326 10.5431 28.9225C13.0097 30.7132 16.4019 31.8529 20.156 31.9872C20.1679 31.9876 20.1799 31.9876 20.1918 31.9872C23.9451 31.8529 27.337 30.7144 29.8036 28.9244C32.2694 27.135 33.8441 24.6636 33.8441 21.883V21.8818C33.8441 21.3643 33.8441 18.111 33.8466 15.3461C33.8467 15.1716 33.7558 15.0095 33.6067 14.9187C33.4576 14.8279 33.272 14.8214 33.1169 14.9016L20.3435 21.5072C20.3435 21.5072 20.3434 21.5072 20.3434 21.5072C20.2283 21.5666 20.1133 21.5666 19.9982 21.5072L7.22974 14.9016Z" fill="url(#paint1_linear)" stroke="#66676B" stroke-linecap="round" stroke-linejoin="round"/>
    <defs>
        <linearGradient id="paint0_linear" x1="20.5" y1="1" x2="20.5" y2="33" gradientUnits="userSpaceOnUse">
            <stop stop-color="#EBF1F4"/>
            <stop offset="1" stop-color="#DBDBDB"/>
        </linearGradient>
        <linearGradient id="paint1_linear" x1="20.1733" y1="15.3457" x2="20.1733" y2="31.4875" gradientUnits="userSpaceOnUse">
            <stop stop-color="#EBF1F4"/>
            <stop offset="1" stop-color="#DBDBDB"/>
        </linearGradient>
    </defs>
</svg>
