<svg width="33" height="33" viewBox="0 0 33 33" fill="none" xmlns="http://www.w3.org/2000/svg">
    <path d="M29.738 27.0301C29.6177 27.2225 29.6421 27.4718 29.7973 27.6373L32.1032 30.0956C32.6323 30.6596 32.6323 31.4948 32.1032 32.0588C31.6855 32.5041 31.3291 32.5356 31.0644 32.4792C30.7552 32.4132 30.4856 32.2042 30.3493 32.0588L28.0434 29.6005C27.8723 29.4181 27.5929 29.3902 27.3891 29.535C26.4111 30.2301 25.2711 30.5772 24.1312 30.5772C20.5347 30.5772 17.5361 27.4279 17.5361 23.5132C17.5361 19.5985 20.5347 16.4492 24.1312 16.4492C27.7277 16.4492 30.7262 19.5985 30.7262 23.5132C30.7262 24.749 30.3948 25.9798 29.738 27.0301ZM20.0837 23.5132C20.0837 25.8388 21.8742 27.7952 24.1312 27.7952C26.3881 27.7952 28.1787 25.8388 28.1787 23.5132C28.1787 21.1876 26.3881 19.2312 24.1312 19.2312C21.8742 19.2312 20.0837 21.1876 20.0837 23.5132Z" fill="url(#paint0_linear)" stroke="#66676B" stroke-linecap="round" stroke-linejoin="round"/>
    <path d="M1.6875 0.5H25.3125C25.7164 0.5 26.0096 0.623206 26.1966 0.796044C26.3801 0.965574 26.5 1.21763 26.5 1.55935V13.5831C26.0842 13.534 25.6622 13.5341 25.3466 13.5342L25.3125 13.5342C19.5055 13.5342 14.6875 17.9318 14.6875 23.3903C14.6875 26.323 16.0907 28.8836 18.221 30.6871H1.6875C1.28359 30.6871 0.990439 30.5639 0.803398 30.391C0.619935 30.2215 0.5 29.9694 0.5 29.6277V1.55935C0.5 1.21763 0.619935 0.965575 0.803398 0.796044C0.990439 0.623206 1.28359 0.5 1.6875 0.5ZM5.0625 12.9748H13.5C14.7839 12.9748 15.6875 11.976 15.6875 10.9155C15.6875 10.3216 15.4699 9.79396 15.0628 9.41772C14.6592 9.04478 14.1086 8.85612 13.5 8.85612H5.0625C4.45391 8.85612 3.90331 9.04478 3.49973 9.41772C3.09257 9.79396 2.875 10.3216 2.875 10.9155C2.875 11.976 3.77858 12.9748 5.0625 12.9748ZM5.0625 6.73741H21.9375C23.2214 6.73741 24.125 5.73857 24.125 4.67806C24.125 4.08417 23.9074 3.55655 23.5003 3.18031C23.0967 2.80737 22.5461 2.61871 21.9375 2.61871H5.0625C4.45391 2.61871 3.90331 2.80737 3.49973 3.18031C3.09257 3.55655 2.875 4.08417 2.875 4.67806C2.875 5.73857 3.77858 6.73741 5.0625 6.73741Z" fill="url(#paint1_linear)" stroke="#66676B" stroke-linecap="round" stroke-linejoin="round"/>
    <defs>
        <linearGradient id="paint0_linear" x1="25.0181" y1="15.9492" x2="25.0181" y2="33.0001" gradientUnits="userSpaceOnUse">
            <stop stop-color="#EBF1F4"/>
            <stop offset="1" stop-color="#DBDBDB"/>
        </linearGradient>
        <linearGradient id="paint1_linear" x1="13.5" y1="0" x2="13.5" y2="31.1871" gradientUnits="userSpaceOnUse">
            <stop stop-color="#EBF1F4"/>
            <stop offset="1" stop-color="#DBDBDB"/>
        </linearGradient>
    </defs>
</svg>
