
<svg width="20" height="21" viewBox="0 0 20 21" fill="none"
     xmlns="http://www.w3.org/2000/svg">
    <path d="M1.99278 14.6121C1.91144 14.698 1.85671 14.8073 1.8335 14.925L1.01132 19.2662C0.972989 19.4674 1.03347 19.6749 1.1706 19.821C1.28112 19.9377 1.42997 20.0002 1.58244 20.0002C1.61949 20.0002 1.65803 19.9966 1.69636 19.988L5.80749 19.1201C5.92141 19.0954 6.0249 19.0378 6.10518 18.9517L15.3066 9.23851L11.1954 4.89893L1.99278 14.6121Z"
          fill="#D3EDFF" stroke="#007AFF"/>
    <path d="M18.1483 1.89776C17.0146 0.700747 15.17 0.700747 14.0372 1.89776L12.4277 3.59673L16.5389 7.93654L18.1483 6.23735C18.6973 5.65918 18.9997 4.88815 18.9997 4.06811C18.9997 3.24808 18.6973 2.47704 18.1483 1.89776Z"
          fill="#D3EDFF" stroke="#007AFF"/>
</svg>