<svg width="24" height="28" viewBox="0 0 24 28" fill="none" xmlns="http://www.w3.org/2000/svg">
    <path d="M19.5862 3.77026V3.92026H19.7362H20.5225C22.1173 3.92026 23.416 5.22685 23.416 6.83319V8.12491H21.7757H2.0823H0.441992V6.83319C0.441992 5.22613 1.74141 3.91954 3.33551 3.91954H4.33952H4.48952V3.76954V2.90668C4.48952 1.89082 5.28463 1.07432 6.25157 1.07432C7.21851 1.07432 8.01362 1.89082 8.01362 2.90668V3.76954V3.91954H8.16362H10.1258H10.2758V3.76954V2.90668C10.2758 1.89082 11.0709 1.07432 12.0378 1.07432C13.0048 1.07432 13.7999 1.89082 13.7999 2.90668V3.76954V3.91954H13.9499H15.9121H16.0621V3.76954V2.90668C16.0621 1.89078 16.8565 1.07432 17.8241 1.07432C18.7911 1.07432 19.5862 1.89082 19.5862 2.90668V3.77026ZM6.25157 7.48707C6.8064 7.48707 7.23943 7.00504 7.23943 6.436V2.90668C7.23943 2.33763 6.8064 1.8556 6.25157 1.8556C5.69673 1.8556 5.2637 2.33763 5.2637 2.90668V6.436C5.2637 7.00504 5.69673 7.48707 6.25157 7.48707ZM12.0378 7.48707C12.5927 7.48707 13.0257 7.00504 13.0257 6.436V2.90668C13.0257 2.33763 12.5927 1.8556 12.0378 1.8556C11.483 1.8556 11.05 2.33763 11.05 2.90668V6.436C11.05 7.00504 11.483 7.48707 12.0378 7.48707ZM17.8241 7.48707C18.379 7.48707 18.812 7.00504 18.812 6.436V2.90668C18.812 2.33763 18.379 1.8556 17.8241 1.8556C17.2685 1.8556 16.8363 2.33772 16.8363 2.90668V6.436C16.8363 7.00496 17.2685 7.48707 17.8241 7.48707Z" fill="#D3EDFF" stroke="#007AFF" stroke-width="0.3"/>
    <path d="M16.8731 14.6325H16.4231V15.0825V18.2896V18.7396H16.8731H20.1644H20.6144V18.2896V15.0825V14.6325H20.1644H16.8731ZM16.8731 18.9165H16.4231V19.3665V22.5736V23.0236H16.8731H20.1644H20.6144V22.5736V19.3665V18.9165H20.1644H16.8731ZM12.4818 14.6325H12.0318V15.0825V18.2896V18.7396H12.4818H15.7724H16.2224V18.2896V15.0825V14.6325H15.7724H12.4818ZM12.4818 18.9165H12.0318V19.3665V22.5736V23.0236H12.4818H15.7724H16.2224V22.5736V19.3665V18.9165H15.7724H12.4818ZM8.08699 14.6325H7.63699V15.0825V18.2896V18.7396H8.08699H11.3783H11.8283V18.2896V15.0825V14.6325H11.3783H8.08699ZM8.08699 18.9165H7.63699V19.3665V22.5736V23.0236H8.08699H11.3783H11.8283V22.5736V19.3665V18.9165H11.3783H8.08699ZM3.69358 14.6325H3.24358V15.0825V18.2896V18.7396H3.69358H6.98488H7.43488V18.2896V15.0825V14.6325H6.98488H3.69358ZM3.69358 18.9165H3.24358V19.3665V22.5736V23.0236H3.69358H6.98488H7.43488V22.5736V19.3665V18.9165H6.98488H3.69358ZM3.33551 26.9374C1.94412 26.9374 0.741992 25.6818 0.741992 24.0516V8.72588H23.116V24.0516C23.116 25.6819 21.9145 26.9374 20.5225 26.9374H3.33551Z" fill="#D3EDFF" stroke="#007AFF" stroke-width="0.9"/>
</svg>
