<svg width="14" height="15" viewBox="0 0 14 15" fill="none" xmlns="http://www.w3.org/2000/svg">
    <path d="M5.56824 12.188C4.07722 12.188 2.86364 10.996 2.86364 9.53166V3.12549H1.75004C0.784659 3.12549 0 3.89602 0 4.84416V13.2817C0 14.2298 0.784659 15.0005 1.75004 15.0005H9.70453C10.6699 15.0005 11.4546 14.2298 11.4546 13.2817V12.188H5.56824Z" fill="#9B9DA7"/>
    <path d="M13.9999 1.71879C13.9999 0.769386 13.2165 0 12.25 0H5.56816C4.60149 0 3.81812 0.769386 3.81812 1.71879V9.53121C3.81812 10.4806 4.60149 11.25 5.56816 11.25H12.25C13.2165 11.25 13.9999 10.4806 13.9999 9.53121V1.71879Z" fill="#9B9DA7"/>
</svg>
