<svg width="33" height="32" viewBox="0 0 33 32" fill="none" xmlns="http://www.w3.org/2000/svg">
    <path d="M13.5996 17.0654H19.4004V19.1986H13.5996V17.0654Z" fill="#FF9E68" />
    <path
        d="M26.7725 19.2004H21.334V20.267C21.334 20.8564 20.9014 21.3336 20.3672 21.3336H12.6328C12.0986 21.3336 11.666 20.8564 11.666 20.267V19.2004H6.22753C4.97749 19.2004 3.87197 18.3213 3.47619 17.013L0 5.50586V28.7999C0 30.5642 1.30115 31.9997 2.90039 31.9997H30.0996C31.6989 31.9997 33 30.5642 33 28.7999V5.50669L29.5236 17.013C29.128 18.3213 28.0225 19.2004 26.7725 19.2004Z"
        fill="#FF9E68" />
    <path
        d="M20.3673 0H12.6329C11.0337 0 9.73255 1.43549 9.73255 3.19984V4.26646H1.66357L5.30996 16.3367C5.44214 16.7731 5.81123 17.0658 6.22766 17.0658H11.6661V15.9992C11.6661 15.4098 12.0987 14.9326 12.6329 14.9326H20.3673C20.9016 14.9326 21.3341 15.4098 21.3341 15.9992V17.0658H26.7726C27.189 17.0658 27.5581 16.7731 27.6903 16.3367L31.3369 4.26646H23.2677V3.19984C23.2677 1.43549 21.9666 0 20.3673 0ZM11.6661 4.26646V3.19984C11.6661 2.61126 12.0994 2.13323 12.6329 2.13323H20.3673C20.9008 2.13323 21.3341 2.61126 21.3341 3.19984V4.26646H11.6661Z"
        fill="#FF9E68" />
</svg>